<?xml version="1.0" encoding="UTF-8"?>
<svg width="107" height="24" viewBox="0 0 107 24" fill="none" xmlns="http://www.w3.org/2000/svg">
  <path fill-rule="evenodd" clip-rule="evenodd" d="M17.1117 0.761713L17.4413 0.922279H17.4487L12.0133 6.33774L6.57804 0.922279L6.90768 0.761713C7.48637 0.49167 8.09436 0.265418 8.72433 0.104852L8.87083 0.0683594L12.006 3.1994L15.1485 0.0683594L15.295 0.104852C15.925 0.265418 16.5403 0.49167 17.1117 0.761713ZM88.8695 3.27239C89.3896 2.7542 90.2246 2.7542 90.7447 3.27239L96.4218 8.93599C96.9419 9.45418 96.9419 10.2862 96.4218 10.8044C96.1654 11.0598 95.8211 11.1912 95.4841 11.1912C95.1472 11.1912 94.8029 11.0598 94.5465 10.8044L88.8695 5.1408C88.3494 4.6226 88.3494 3.79058 88.8695 3.27239ZM85.4266 2.88559H69.7653C69.0328 2.88559 68.4395 3.47676 68.4395 4.20661C68.4395 4.93645 69.0328 5.52763 69.7653 5.52763H85.4266C86.1591 5.52763 86.7525 4.93645 86.7525 4.20661C86.7525 3.47676 86.1591 2.88559 85.4266 2.88559ZM100.736 13.2348C100.216 12.7166 99.3811 12.7166 98.8611 13.2348C98.341 13.753 98.341 14.585 98.8611 15.1032L104.538 20.7668C104.794 21.0222 105.139 21.1536 105.476 21.1536C105.813 21.1536 106.157 21.0222 106.413 20.7668C106.933 20.2486 106.933 19.4166 106.413 18.8984L100.736 13.2348ZM94.5465 13.2348L88.8695 18.8984C88.3494 19.4166 88.3494 20.2486 88.8695 20.7668C89.1258 21.0222 89.4701 21.1536 89.8071 21.1536C90.1441 21.1536 90.4883 21.0222 90.7447 20.7668L96.4218 15.1032C96.9419 14.585 96.9419 13.753 96.4218 13.2348C95.9017 12.7166 95.0666 12.7239 94.5465 13.2348ZM100.729 10.8044C100.473 11.0598 100.128 11.1912 99.7914 11.1912C99.4544 11.1912 99.1101 11.0598 98.8537 10.8044C98.3336 10.2862 98.3336 9.45418 98.8537 8.93599L104.531 3.27239C105.051 2.7542 105.886 2.7542 106.406 3.27239C106.926 3.79058 106.926 4.6226 106.406 5.1408L100.729 10.8044ZM85.4266 18.5116H69.758C69.0255 18.5116 68.4321 19.1027 68.4321 19.8326C68.4321 20.5624 69.0255 21.1536 69.758 21.1536H85.4266C86.1591 21.1536 86.7525 20.5624 86.7525 19.8326C86.7525 19.1027 86.1591 18.5116 85.4266 18.5116ZM37.5564 2.88559C38.0618 2.88559 38.516 3.17022 38.743 3.61543L46.5737 19.2487C46.9033 19.9056 46.6396 20.6938 45.9804 21.0223C45.3284 21.3507 44.53 21.0879 44.2003 20.4311L37.5564 7.16978L30.9124 20.4311C30.678 20.8909 30.2092 21.1609 29.7257 21.1609C29.5279 21.1609 29.3228 21.1171 29.1324 21.0223C28.4804 20.6938 28.2094 19.8983 28.539 19.2487L36.3697 3.61543C36.5968 3.17022 37.0509 2.88559 37.5564 2.88559ZM65.4068 18.5116H51.0714V4.20661C51.0714 3.47676 50.478 2.88559 49.7455 2.88559C49.013 2.88559 48.4196 3.47676 48.4196 4.20661V19.8399C48.4196 20.5698 49.013 21.1609 49.7455 21.1609H65.4141C66.1467 21.1609 66.74 20.5698 66.74 19.8399C66.74 19.1101 66.1467 18.5189 65.4141 18.5189L65.4068 18.5116ZM69.758 10.7095H85.4266C86.1591 10.7095 86.7525 11.3007 86.7525 12.0306C86.7525 12.7604 86.1591 13.3516 85.4266 13.3516H69.758C69.0255 13.3516 68.4321 12.7604 68.4321 12.0306C68.4321 11.3007 69.0255 10.7095 69.758 10.7095ZM0.85705 6.62241L0.695895 6.95084C0.424862 7.52742 0.197781 8.13319 0.0366261 8.76086L0 8.90683L3.14252 12.0379L0 15.1616L0.0366261 15.3076C0.197781 15.9352 0.424862 16.541 0.695895 17.1176L0.85705 17.446L6.29236 12.0306L0.85705 6.62241ZM2.79823 3.74676L2.6151 3.95841C2.21222 4.41822 1.87526 4.89991 1.57492 5.34512L1.45772 5.52028L7.99913 12.0597L1.46504 18.5699L1.57492 18.7451C1.86061 19.2122 2.20489 19.6647 2.62243 20.1464L2.80556 20.3508L11.149 12.0597L2.79823 3.74676ZM20.1443 2.67392L20.3568 2.85638L12.006 11.1693L3.6626 2.85638L3.87503 2.67392C4.33652 2.2725 4.81266 1.93677 5.26683 1.63753L5.44263 1.52076L12.006 8.03099L18.5621 1.52076L18.7379 1.63024C19.2067 1.91488 19.6682 2.2579 20.1443 2.67392ZM22.5323 5.52028L22.5294 5.5159L22.5323 5.51298V5.52028ZM22.5294 5.5159L22.4151 5.34512C22.1148 4.89262 21.7779 4.41822 21.375 3.95841L21.1918 3.74676L12.8704 12.0378L21.2138 20.3508L21.3969 20.1391C21.8145 19.6574 22.1588 19.2049 22.4444 18.7378L22.547 18.5626L15.9909 12.0305L22.5294 5.5159ZM23.3235 6.95084C23.5945 7.52742 23.8216 8.13319 23.9827 8.76086L24.0194 8.90683L20.8769 12.0379L24.0194 15.1689L23.9827 15.3149C23.8216 15.9425 23.5945 16.5556 23.3235 17.1249L23.1623 17.4533L17.727 12.0379L23.1623 6.62241L23.3235 6.95084ZM3.6626 21.1828L3.87503 21.3652C4.34385 21.774 4.81266 22.1243 5.28148 22.4089L5.45728 22.5184L11.9914 16.0082L18.5328 22.5257L18.7086 22.4089C19.1335 22.1243 19.6389 21.7813 20.1004 21.3725L20.3055 21.1901L12.0133 12.899L3.66993 21.1828H3.6626ZM6.90768 23.3066L6.57804 23.1461L12.0133 17.7306L17.4487 23.1461L17.119 23.3066C16.5403 23.5767 15.9323 23.8029 15.3024 23.9635L15.1559 24L12.0133 20.8689L8.87083 24L8.72433 23.9635C8.09436 23.8029 7.48637 23.5767 6.90768 23.3066Z" fill="white"/>
</svg>