<svg width="147" height="25" viewBox="0 0 147 25" fill="none" xmlns="http://www.w3.org/2000/svg">
  <path d="M112.134 24.0146H101.619V0.0146484H105.579V20.0367H112.134V24.0146Z" fill="#E6DFD0" />
  <path d="M90.3452 24.0117H86.3679V0.0146484H99.5318V3.99216H90.3452V9.33951H94.2199V13.317H90.3452V24.0146V24.0117Z"
    fill="#E6DFD0" />
  <path d="M79.1664 24.0146H75.1852V3.99265H70.0736V0.0146484H84.281V3.99265H79.1694V24.0146H79.1664Z" fill="#E6DFD0" />
  <path d="M67.9866 24.0146H63.9733V0.0146484H67.9866V24.0146Z" fill="#E6DFD0" />
  <path
    d="M57.3714 24.0117H48.2408V0.0146484H57.3714L61.3245 3.99216V9.33951L58.6658 12.0146L61.3245 14.6898V20.0371L57.3714 24.0146V24.0117ZM52.1939 3.99216V10.0259H57.3714V3.99216H52.1939ZM52.1939 14.0034V20.0371H57.3714V14.0034H52.1939Z"
    fill="#E6DFD0" />
  <path
    d="M114.381 0.0146484V24.0146H118.345H129.391V0.0146484H114.381ZM125.428 20.0367H118.345V3.99265H125.428V20.0396V20.0367Z"
    fill="#E6DFD0" />
  <path
    d="M142.852 0.0146484V15.0935L141.555 9.34065H137.217L135.921 15.0906V0.0146484H131.96V24.0146H137.15L139.402 14.0931L141.622 24.0146H146.809V0.0146484H142.852Z"
    fill="#E6DFD0" />
  <path
    d="M26.0155 0.0146484V4.8082H21.681V8.83361H17.3466V4.8082H13.0121V0.0146484H8.67769V4.8082H4.34324V8.83361H0V24.0146H4.33445V19.9892H8.6689V15.1957H13.0033V19.9892H17.3378V24.0146H21.6722V19.9892H26.0067V15.1957H30.3411V0.0146484H26.0067H26.0155Z"
    fill="#F78116" />
</svg>