<svg width="87" height="20" viewBox="0 0 87 20" fill="none" xmlns="http://www.w3.org/2000/svg">
<path d="M38.6623 11.0537H45.8762V8.76588H38.6623V5.50945H46.2267V3.16431H35.9985V16.8337H46.3923V14.4694H38.6623V11.0537Z" fill="black" fill-opacity="0.88"/>
<path d="M50.5101 3.16431H47.8145V16.8337H57.5774V14.3547H50.5101V3.16431Z" fill="black" fill-opacity="0.88"/>
<path d="M27.5104 13.3924L23.3363 3.16431H20.373L26.032 16.8337H26.0766H28.9124H29.0526L34.6287 3.16431H31.7482L27.5104 13.3924Z" fill="black" fill-opacity="0.88"/>
<path d="M67.5242 3.16431H64.7075H64.5609L58.9976 16.8337H61.8716L66.1094 6.60554L70.2772 16.8337H73.2468L67.5815 3.16431H67.5242Z" fill="black" fill-opacity="0.88"/>
<path d="M82.7108 12.0493C83.7622 11.7753 84.5843 11.2591 85.1706 10.5008C85.7569 9.74241 86.05 8.82474 86.05 7.72865C86.05 6.63255 85.8525 6.02715 85.4446 5.33253C85.0431 4.63153 84.4696 4.1026 83.7368 3.72024C82.9975 3.34426 82.1436 3.15308 81.1686 3.15308H74.6685V16.8224H77.345V5.55557H80.9965C81.7549 5.55557 82.3348 5.74675 82.7554 6.13548C83.1696 6.51784 83.3799 7.05315 83.3799 7.74777C83.3799 8.44239 83.176 8.97132 82.7554 9.35368C82.3411 9.72966 81.7549 9.92084 80.9965 9.92084H77.9121L83.4564 16.8416H86.7574L82.7171 12.0621V12.0493H82.7108Z" fill="black" fill-opacity="0.88"/>
<path d="M8.49414 10.0028L9.66671 11.2264L10.8265 10.0028L9.66671 8.7793L8.49414 10.0028Z" fill="#FC5101"/>
<path d="M9.09393 5.11967C9.94786 4.22112 10.1773 2.95297 9.69296 1.81226C9.36795 1.05391 8.78804 0.493119 8.06793 0.193604C7.34782 0.486746 6.7679 1.05391 6.4429 1.81226C5.9522 2.95297 6.18162 4.22112 7.04193 5.11967L8.06793 6.19665L9.09393 5.11967Z" fill="#FC5101"/>
<path d="M6.89551 11.6769L8.06808 12.9005L9.23428 11.6769L8.06808 10.4534L6.89551 11.6769Z" fill="#FC5101"/>
<path d="M10.2662 1.56792C10.8525 2.93804 10.5785 4.46748 9.54609 5.54446L8.50098 6.64693L9.66717 7.87048L12.28 5.13024C13.1403 4.23169 13.3697 2.95716 12.879 1.81645C12.452 0.822317 11.5917 0.159561 10.553 0.000244141H9.00442C9.54609 0.382604 9.98581 0.917908 10.2662 1.56792Z" fill="#FC5101"/>
<path d="M13.4399 1.57429C14.0326 2.95079 13.7522 4.48022 12.7198 5.56358L10.0879 8.32294L11.2541 9.54649L15.2306 5.37877C16.1292 4.43562 16.3713 3.10373 15.8551 1.90567C15.4091 0.866926 14.4978 0.165933 13.4144 0.000244141H12.1717C12.7198 0.382604 13.1595 0.917906 13.4399 1.57429Z" fill="#FC5101"/>
<path d="M3.26321 1.82378C2.77251 2.97086 3.00193 4.23902 3.86224 5.13756L6.47503 7.8778L7.64123 6.65425L6.59611 5.55178C5.56374 4.46843 5.28972 2.94536 5.876 1.57524C6.1564 0.92523 6.59611 0.389928 7.13779 0.00756836H5.58923C4.55686 0.166885 3.69018 0.836014 3.26321 1.82378Z" fill="#FC5101"/>
<path d="M6.47433 8.7793L5.30176 10.0028L6.47433 11.2264L7.63415 10.0028L6.47433 8.7793Z" fill="#FC5101"/>
<path d="M9.23428 8.32145L8.06808 7.0979L6.89551 8.32145L8.06808 9.545L9.23428 8.32145Z" fill="#FC5101"/>
<path d="M12.8663 18.1739C13.357 17.0268 13.1276 15.7587 12.2673 14.8601L9.65448 12.1199L8.48828 13.3434L9.5334 14.4459C10.5658 15.5292 10.8398 17.0523 10.2535 18.4224C9.97311 19.0724 9.5334 19.6077 8.99172 19.9901H10.5403C11.5726 19.8308 12.4393 19.1617 12.8663 18.1739Z" fill="#FC5101"/>
<path d="M15.861 18.0942C16.3772 16.8961 16.135 15.5642 15.2365 14.6211L11.2599 10.4534L10.0938 11.6769L12.7257 14.4363C13.758 15.5196 14.0321 17.0491 13.4458 18.4256C13.1654 19.082 12.7257 19.6173 12.1776 19.9996H13.4203C14.5036 19.8339 15.4149 19.1393 15.861 18.0942Z" fill="#FC5101"/>
<path d="M7.0415 14.8782C6.18756 15.7768 5.95815 17.045 6.44247 18.1857C6.76747 18.944 7.34739 19.5048 8.0675 19.8043C8.78761 19.5112 9.36752 18.944 9.69253 18.1857C10.1832 17.045 9.95381 15.7768 9.0935 14.8782L8.0675 13.8013L7.0415 14.8782Z" fill="#FC5101"/>
<path d="M2.68878 18.4256C2.09612 17.0491 2.37652 15.5196 3.40889 14.4363L6.0408 11.6769L4.8746 10.4534L0.898059 14.6211C-0.000486693 15.5642 -0.242647 16.8961 0.273539 18.0942C0.719625 19.1329 1.63092 19.8339 2.71427 19.9996H3.95694C3.40889 19.6173 2.96917 19.082 2.68878 18.4256Z" fill="#FC5101"/>
<path d="M0.267679 1.90567C-0.248506 3.10373 -0.00634607 4.43562 0.892199 5.37877L4.86874 9.54649L6.03494 8.32294L3.40303 5.56358C2.37066 4.48022 2.09663 2.95079 2.68292 1.57429C2.96332 0.917906 3.40303 0.382604 3.95108 0.000244141H2.70841C1.62506 0.165933 0.713766 0.860553 0.267679 1.90567Z" fill="#FC5101"/>
<path d="M5.876 18.4298C5.28972 17.0596 5.56374 15.5302 6.59611 14.4532L7.64123 13.3507L6.47503 12.1272L3.86224 14.8674C3.00193 15.766 2.77251 17.0405 3.26321 18.1812C3.69018 19.1754 4.55049 19.8381 5.58923 19.9974H7.13779C6.59611 19.6151 6.1564 19.0798 5.876 18.4298Z" fill="#FC5101"/>
</svg>
